<?xml version="1.0"?>
<svg xmlns="http://www.w3.org/2000/svg" xmlns:xlink="http://www.w3.org/1999/xlink" version="1.1" id="Capa_1" x="0px" y="0px" viewBox="0 0 512 512" style="enable-background:new 0 0 512 512;" xml:space="preserve" width="512px" height="512px" class=""><g transform="matrix(1 -2.44929e-16 2.44929e-16 1 -1.13687e-13 0)"><path style="fill:#1769AA" d="M453.959,302.36h-35.536V209.64h35.536c32.009,0,58.041-26.032,58.041-58.031  s-26.032-58.031-58.041-58.031h-35.536V58.041C418.423,26.032,392.39,0,360.391,0S302.36,26.032,302.36,58.041v35.536H209.64V58.041  C209.64,26.032,183.607,0,151.609,0S93.577,26.032,93.577,58.041v35.536H58.041C26.032,93.577,0,119.61,0,151.609  s26.032,58.031,58.041,58.031h35.536v92.721H58.041C26.032,302.36,0,328.393,0,360.391s26.032,58.031,58.041,58.031h35.536v35.536  c0,32.009,26.032,58.041,58.031,58.041s58.031-26.032,58.031-58.041v-35.536h92.721v35.536c0,32.009,26.032,58.041,58.031,58.041  s58.031-26.032,58.031-58.041v-35.536h35.536c32.009,0,58.041-26.032,58.041-58.031S485.968,302.36,453.959,302.36z M302.36,209.64  v92.721H209.64V209.64L302.36,209.64L302.36,209.64z" data-original="#6EE1FF" class="" data-old_color="#1769aa"/><path style="fill:#2196F3" d="M453.959,209.64c32.009,0,58.041-26.032,58.041-58.031s-26.032-58.031-58.041-58.031h-35.536V58.041  C418.423,26.032,392.39,0,360.391,0S302.36,26.032,302.36,58.041v35.536H256V209.64h46.36v92.721H256v116.062h46.36v35.536  c0,32.009,26.032,58.041,58.031,58.041s58.031-26.032,58.031-58.041v-35.536h35.536c32.009,0,58.041-26.032,58.041-58.031  s-26.032-58.031-58.041-58.031h-35.536V209.64L453.959,209.64L453.959,209.64z" data-original="#05CDFF" class="active-path" data-old_color="#2196f3"/></g> </svg>
